<svg version="1.1" xmlns="http://www.w3.org/2000/svg" xmlns:xlink="http://www.w3.org/1999/xlink" width="443.79749" height="90.13594" viewBox="0,0,443.79749,90.13594"><g transform="translate(-17.26637,-136.03356)"><g data-paper-data="{&quot;isPaintingLayer&quot;:true}" stroke-miterlimit="10" stroke-dasharray="" stroke-dashoffset="0" style="mix-blend-mode: normal"><g data-paper-data="{&quot;index&quot;:null}" fill-rule="evenodd"><path d="M370.41147,205.0268c1.87648,-0.39093 4.14389,-1.01643 6.02037,-2.73653c4.30026,-3.83114 5.62944,-10.16426 8.60053,-8.52234c3.04928,1.64192 2.97109,11.88437 -6.56768,15.01183c-3.28384,1.09461 -6.25493,1.09461 -8.67871,1.01643c-0.62549,0 -6.02037,-0.54731 -7.89685,-3.20565c-1.87648,-2.65834 -0.54731,-3.36202 0.07819,-3.67477c0.70368,-0.39093 5.78581,2.58016 8.44415,2.11104z" fill="#ffab19" stroke="#001026" stroke-width="1.2" stroke-linecap="round" stroke-linejoin="round"/><path d="M384.56325,193.9243c1.56373,0.46912 2.3456,3.75296 1.56373,6.48949c-0.78187,2.73653 -2.03285,4.14389 -3.04928,5.16032c0.15637,-0.54731 0.46912,-2.26741 -0.86005,-3.28384c-1.64192,-1.32917 -4.53482,-0.62549 -4.53482,-0.62549c0,0 2.42378,-2.97109 3.67477,-5.08213c1.25099,-1.79829 1.64192,-2.97109 3.20565,-2.65834z" fill="#ffffff" stroke="none" stroke-width="1" stroke-linecap="butt" stroke-linejoin="miter"/></g><path d="M357.82342,205.6523c2.8929,-2.50197 6.48949,0.39093 8.05322,1.56373c1.56373,1.1728 2.3456,1.87648 5.70762,3.59658c1.32917,0.70368 3.04928,1.32917 3.98752,1.64192c0.39093,0.07819 0.78187,0.07819 1.1728,-0.07819c0.70368,-0.31275 2.03285,-0.86005 3.5184,0.23456c3.28384,2.8929 -4.45664,13.91722 -8.60053,12.58804c-4.30026,-1.32917 -1.87648,-5.08213 -0.54731,-6.95861c0.15637,-0.31275 0,-0.70368 -0.31275,-0.78187l-0.31275,-0.07819c-6.17674,-1.95467 -11.02431,-5.39488 -12.43167,-6.33312c-1.32917,-0.93824 -2.73653,-3.28384 -0.23456,-5.39488z" data-paper-data="{&quot;index&quot;:null}" fill="#ffab19" fill-rule="evenodd" stroke="#001026" stroke-width="1.2" stroke-linecap="round" stroke-linejoin="round"/><path d="M349.69202,196.34809c0,2.03285 -1.64192,4.14389 -2.58016,5.39488c-0.93824,1.25099 -5.31669,5.864 -10.71157,3.44021c-2.26741,-1.1728 -7.5841,-5.55125 -4.76938,-8.13141c2.81472,-2.58016 5.39488,0.62549 7.27135,2.26741c1.56373,1.40736 6.33312,-4.22208 6.72405,-4.53482c1.32917,-1.1728 3.98752,-0.62549 4.0657,1.56373z" data-paper-data="{&quot;index&quot;:null}" fill="#ffab19" fill-rule="evenodd" stroke="#001026" stroke-width="1.2" stroke-linecap="round" stroke-linejoin="round"/><g data-paper-data="{&quot;index&quot;:null}" fill-rule="evenodd"><path d="M351.41212,207.29421c-0.93824,-0.70368 -1.87648,-1.87648 -3.12746,-3.67477c-1.01643,-1.48555 -2.11104,-4.37845 -2.11104,-4.37845c-0.70368,-1.95467 -1.1728,-5.70762 1.40736,-5.62944c1.72011,0.07819 3.28384,-0.15637 5.94218,-0.54731c4.6912,-0.93824 5.55125,-1.56373 7.50591,1.64192c2.11104,3.75296 7.50591,6.48949 0.86005,12.97898c0,0 -3.83114,2.97109 -8.44415,7.50591c-3.12746,3.04928 -8.05322,7.42773 -9.77333,8.91327c-0.39093,0.31275 -0.86005,0.46912 -1.32917,0.54731c-7.5841,0.70368 -13.21354,-0.07819 -13.21354,-3.44021c0,-5.62944 11.18069,-3.67477 11.18069,-3.67477c0,0 3.59658,-3.04928 5.2385,-4.53482z" fill="#ffab19" stroke="#001026" stroke-width="1.2" stroke-linecap="round" stroke-linejoin="round"/><path d="M347.97191,202.05571c0,0 -1.48555,-1.95467 1.87648,-4.0657c3.5184,-2.26741 4.84757,0.23456 6.25493,2.11104c1.56373,2.42378 0,3.59658 -1.56373,5.00394c-1.25099,1.1728 -2.42378,2.11104 -2.42378,2.11104c0,0 -2.42378,-1.64192 -4.14389,-5.16032z" fill="#ffffff" stroke="none" stroke-width="1" stroke-linecap="butt" stroke-linejoin="miter"/></g><path d="M363.84379,199.55374c-0.86005,-0.54731 -2.03285,-1.48555 -3.20565,-2.3456c-1.95467,-1.40736 -4.76938,-4.53482 -0.86005,-5.94218c3.12746,-1.1728 5.94218,1.01643 9.30421,3.44021c1.72011,1.32917 3.75296,2.8929 3.04928,5.31669c-0.78187,2.73653 -4.61301,10.55519 -9.22602,7.97503c-3.36202,-2.26741 -0.70368,-5.00394 1.01643,-7.19317c0.23456,-0.39093 0.15637,-0.86005 -0.07819,-1.25099z" data-paper-data="{&quot;index&quot;:null}" fill="#ffab19" fill-rule="evenodd" stroke="#001026" stroke-width="1.2" stroke-linecap="round" stroke-linejoin="round"/><g data-paper-data="{&quot;index&quot;:null}" fill-rule="evenodd"><path d="M346.01725,154.36188c1.79829,-0.31275 3.67477,-0.46912 5.864,-0.31275c3.67477,0.15637 7.19317,1.48555 7.19317,1.48555l9.46058,-6.17674c0.31275,-0.15637 0.70368,0.07819 0.62549,0.39093l-1.64192,13.9954c-0.46912,-0.62549 8.28778,10.00789 2.73653,18.92116c-5.55125,8.91327 -17.35743,12.90079 -32.05651,10.00789c-14.69908,-2.8929 -18.13929,-11.33706 -17.20105,-15.7937c0.93824,-4.45664 6.48949,-6.09856 6.48949,-6.09856c0,0 0.07819,-3.5184 2.58016,-7.81866c1.48555,-2.58016 6.48949,-6.25493 6.48949,-6.25493l2.03285,-8.36597c0.07819,-0.31275 0.46912,-0.39093 0.70368,-0.23456z" fill="#ffab19" stroke="#001026" stroke-width="1.2" stroke-linecap="butt" stroke-linejoin="miter"/><path d="M340.62237,174.92496c6.56768,0.46912 15.55914,-6.64586 20.79764,1.72011c5.2385,8.28778 -3.75296,19.54665 -22.67412,15.63732c-14.54271,-2.81472 -18.29567,-10.86794 -17.35743,-15.32458c0.93824,-4.45664 6.33312,-5.864 6.33312,-5.864c6.64586,-1.48555 7.27135,3.44021 12.90079,3.83114z" fill="#ffffff" stroke="none" stroke-width="1" stroke-linecap="butt" stroke-linejoin="miter"/><path d="M344.76626,189.07673c-8.20959,0.46912 -11.18069,-5.39488 -11.88437,-7.50591c-0.15637,-0.39093 0.15637,-0.78187 0.54731,-0.70368c1.1728,0.23456 3.67477,0.46912 7.89685,0.23456c4.6912,-0.31275 8.91327,-1.56373 10.39882,-2.11104c0.31275,-0.07819 0.62549,0.15637 0.62549,0.46912c0.23456,3.83114 -0.46912,8.83509 -7.5841,9.61695z" fill="#ffffff" stroke="#001026" stroke-width="1.2" stroke-linecap="round" stroke-linejoin="round"/><path d="M322.63945,175.00314c0,0 -5.62944,-0.07819 -9.30421,-3.04928" fill="none" stroke="#001026" stroke-width="1.2" stroke-linecap="round" stroke-linejoin="round"/><path d="M322.3267,179.61615c0,0 -3.04928,1.48555 -7.97503,1.09461" fill="none" stroke="#001026" stroke-width="1.2" stroke-linecap="round" stroke-linejoin="round"/><path d="M344.5317,173.90853c0,1.25099 -3.28384,3.20565 -4.6912,3.04928c-1.25099,-0.07819 -2.42378,-2.26741 -2.3456,-3.36202c0.07819,-0.54731 1.79829,-0.70368 3.44021,-0.70368c1.56373,0 3.67477,0.07819 3.59658,1.01643z" fill="#001026" stroke="#001026" stroke-width="1.2" stroke-linecap="round" stroke-linejoin="round"/><path d="M366.65851,176.33232c2.73653,-2.42378 9.46058,-4.61301 9.46058,-4.61301" fill="none" stroke="#001026" stroke-width="1.2" stroke-linecap="round" stroke-linejoin="round"/><path d="M375.57179,179.53797c0,0 -5.78581,0.86005 -9.14783,-0.46912" fill="none" stroke="#001026" stroke-width="1.2" stroke-linecap="round" stroke-linejoin="round"/><g><path d="M339.8405,159.99131c2.18923,1.40736 2.11104,5.39488 -0.15637,8.91327c-2.3456,3.5184 -5.94218,5.16032 -8.13141,3.75296c-2.18923,-1.40736 -2.11104,-5.39488 0.15637,-8.91327c2.26741,-3.5184 5.94218,-5.2385 8.13141,-3.75296z" fill="#ffffff" stroke="#001026" stroke-width="1.2" stroke-linecap="round" stroke-linejoin="round"/><path d="M332.02184,168.20091c0,-0.86005 0.62549,-1.56373 1.40736,-1.56373c0.78187,0 1.40736,0.70368 1.40736,1.56373c0,0.86005 -0.62549,1.56373 -1.40736,1.56373c-0.78187,0 -1.40736,-0.70368 -1.40736,-1.56373" fill="#001026" stroke="none" stroke-width="1" stroke-linecap="butt" stroke-linejoin="miter"/></g><g><path d="M359.54353,162.4151c2.42378,1.72011 2.26741,6.17674 -0.15637,9.61695c-2.3456,3.44021 -5.78581,4.53482 -8.36597,3.04928c-2.11104,-1.48555 -2.26741,-5.70762 0.07819,-9.14783c2.3456,-3.44021 6.02037,-5.31669 8.44415,-3.5184z" fill="#ffffff" stroke="#001026" stroke-width="1.2" stroke-linecap="round" stroke-linejoin="round"/><path d="M351.5685,170.46832c0,-0.86005 0.62549,-1.48555 1.40736,-1.56373c0.78187,0 1.40736,0.70368 1.40736,1.56373c0,0.86005 -0.62549,1.56373 -1.40736,1.56373c-0.78187,0 -1.40736,-0.70368 -1.40736,-1.56373" fill="#001026" stroke="none" stroke-width="1" stroke-linecap="butt" stroke-linejoin="miter"/></g></g><path d="M277.29202,213.64736v0v0v0v0v0v0v0v0v0v0v0v0v0v0v0v0v0v0v0c1.03656,1.9296 -1.07524,4.81311 -1.25051,5.06621c-0.3024,0.2957 0,0 -0.0051,0.00723c0,0 -1.51763,1.64245 -2.52142,1.08516c-0.42751,-0.23685 -0.62058,-0.65567 -0.6304,-1.20488c-0.18754,-0.06007 -0.44701,-0.18745 -0.56315,-0.46269c-0.19349,-0.45755 0.78096,-0.81077 0.78096,-0.81077v0.0068c0.04463,-0.14145 0.09271,-0.28672 0.15099,-0.43752c0.32923,-0.85384 1.14075,-2.52312 1.14075,-2.52312c0,0 1.84813,-2.68076 2.89787,-0.72642z" fill="#9a8479" fill-rule="nonzero" stroke="#000000" stroke-width="0.90137" stroke-linecap="round" stroke-linejoin="round"/><path d="M288.99279,216.4981v0v0v0v0v0v0v0v0v0v0v0v0v0v0v0v0v0v0v0c0,0 0.97446,0.35445 0.77969,0.81162c-0.11528,0.2778 -0.37603,0.40432 -0.5623,0.46524c-0.00982,0.54667 -0.20247,0.96756 -0.6304,1.20403c-0.65331,0.36172 -1.47338,-0.17252 -1.96847,-0.59092c-0.23307,-0.15722 -0.49467,-0.32809 -0.72651,-0.46184c-0.58483,-0.33787 -1.97612,-2.62792 -1.71027,-3.91502c0.26585,-1.28711 3.07861,0 3.07861,0c0.65463,0.63054 1.36239,1.46521 1.58909,2.05442c0.05743,0.15127 0.10636,0.29782 0.15056,0.44097z" fill="#9a8479" fill-rule="nonzero" stroke="#000000" stroke-width="0.90137" stroke-linecap="round" stroke-linejoin="round"/><path d="M278.41747,218.53377v0v0v0v0v0v0v0v0v0v0v0v0v0v0v0v0v0v0v0c1.83878,0.70172 2.56444,1.08431 2.30497,2.55164c-0.19439,1.10051 0.74266,3.51708 0.74266,3.51708c0,0 0.45509,0.13082 0.299,0.49849c-0.15566,0.37239 -1.28456,0.61949 -2.74773,0.54152c-1.46275,-0.07797 -2.61205,-0.0605 -2.77791,-0.4124c-0.16629,-0.35024 0.13866,-0.51342 0.13866,-0.51342c0,0 0.05658,-0.83037 0.05828,-1.7234c0,-0.89256 -0.14164,-3.33431 -0.14164,-3.33431c0,0 0.2854,-1.8265 2.12371,-1.12521z" fill="#9a8479" fill-rule="nonzero" stroke="#000000" stroke-width="0.90137" stroke-linecap="butt" stroke-linejoin="miter"/><path d="M283.16432,218.85969v0v0v0v0v0v0v0v0v0v0v0v0v0v0v0v0v0v0v0c1.38237,-0.63224 2.22326,-0.73704 2.57757,0.0017c0,0 0.69288,1.29693 1.04124,2.64794c0.34793,1.34973 0.5972,2.90316 0.5972,2.90316c0,0 0.46194,0.24582 0.45854,0.48867c-0.00255,0.24242 -0.40026,0.71749 -2.49719,0.77714c-2.09613,0.05667 -2.84304,-0.28847 -2.90765,-0.60627c-0.06636,-0.31742 0.17947,-0.34557 0.17947,-0.34557c0,0 0.02895,-0.34467 0,-1.17844c-0.02848,-0.83424 -0.37386,-2.36972 -0.37386,-2.36972c0,0 -0.45769,-1.68675 0.92468,-2.31862z" fill="#9a8479" fill-rule="nonzero" stroke="#000000" stroke-width="0.90137" stroke-linecap="butt" stroke-linejoin="miter"/><path d="M280.0074,211.93803v0v0v0v0v0v0v0v0v0v0v0v0v0v0v0v0v0v0v0c3.82047,-0.29612 5.2794,1.92403 5.27855,1.9236c0.31133,0.57349 0.69713,1.38256 0.85747,2.12135c0.04468,0.20407 0.07146,0.43374 0.07868,0.67999c0,0 -0.02253,0.85554 -0.10546,1.11671c-0.3475,1.09409 -0.91405,2.29175 -2.26964,2.83326c-2.12758,0.85379 -4.39212,0.74899 -6.74512,-0.37282c-0.79409,-0.37749 -1.26453,-1.02084 -1.51848,-1.7532c-0.18117,-0.52749 -0.25857,-1.21471 -0.25857,-1.21471c-0.11146,-1.14268 0.08803,-2.2585 0.19439,-2.74377c0,0 0.66818,-2.29434 4.48818,-2.59042z" fill="#9a8479" fill-rule="nonzero" stroke="#000000" stroke-width="0.90137" stroke-linecap="butt" stroke-linejoin="miter"/><g fill-rule="nonzero" stroke-width="0.90137" stroke-linejoin="miter"><path d="M260.23874,205.42149v0v0v0v0v0v0v0v0v0v0v0v0v0v0v0v0v0v0v0c-0.023,-0.03877 -0.68098,-1.14056 -0.68098,-1.14183c-1.82518,-2.93636 -2.22964,-9.57645 -2.071,-11.64877l0.01403,-0.09927c0.51852,-8.78396 4.59497,-13.4723 7.00242,-15.95362c5.46439,-5.63588 13.74712,-5.86507 13.74712,-5.86507l0.29348,5.7019c0,0 -0.01573,-1.6399 3.31641,-4.50684c3.33128,-2.86689 8.25765,-2.44812 8.25765,-2.44812l-2.61417,7.14538c0,0 1.54101,-2.22572 2.80384,-3.03904c2.23904,-1.43966 4.13223,-0.82101 4.13223,-0.82101l-0.5223,4.43184c0,0 3.33256,4.3287 5.8825,8.39627c0.54572,0.86786 1.17863,1.7464 1.57969,2.75699c1.45812,3.67175 1.66909,10.21597 0.03363,13.45738c-0.282,0.57349 -0.58997,1.13031 -0.90895,1.67783c-0.08293,0.1406 -0.16676,0.28035 -0.25097,0.41797c-0.29178,0.48144 -0.59715,0.95391 -0.91788,1.41108c-0.04383,0.06092 -0.08251,0.12567 -0.12634,0.1866c-0.36323,0.50912 -0.74734,0.99996 -1.14632,1.47673c-0.09483,0.115 -0.19519,0.2258 -0.29263,0.34042c-0.34198,0.39365 -0.69628,0.77624 -1.05994,1.14439c-0.08378,0.08647 -0.16544,0.1738 -0.25012,0.25645c-0.43766,0.42864 -0.89365,0.83721 -1.36319,1.22746c-0.10466,0.08567 -0.21182,0.1679 -0.31733,0.25182c-0.39431,0.31487 -0.80179,0.61609 -1.21863,0.90324c-0.12034,0.0818 -0.23775,0.16785 -0.35898,0.24795c-0.50912,0.33532 -1.03019,0.65019 -1.56906,0.94116c-0.09573,0.05242 -0.19822,0.09885 -0.29565,0.14957c-0.46019,0.2403 -0.93063,0.46099 -1.4117,0.66549c-2.0353,0.86404 -4.24496,1.42728 -6.61751,1.59853c-2.71113,0.19557 -5.16581,0.11335 -7.38313,-0.17635c-0.54827,-0.0716 -1.08162,-0.15722 -1.60099,-0.25352c-0.09866,-0.02002 -0.19694,-0.0392 -0.29475,-0.05837c-0.52659,-0.10395 -1.04336,-0.2156 -1.53931,-0.34297c-0.00298,-0.00128 -0.0068,-0.00213 -0.0102,-0.00298c-0.49684,-0.12525 -0.97446,-0.2667 -1.44107,-0.41712c-0.08166,-0.0264 -0.16549,-0.05242 -0.24672,-0.07882c-0.44829,-0.14612 -0.88515,-0.30335 -1.30624,-0.47035c-0.07401,-0.02772 -0.14546,-0.06007 -0.21904,-0.08907c-0.41556,-0.16742 -0.82092,-0.34212 -1.20965,-0.52702c-0.01492,-0.00893 -0.0315,-0.01407 -0.04595,-0.02215c-0.39813,-0.19132 -0.77837,-0.39072 -1.14802,-0.59479c-0.06891,-0.03835 -0.13739,-0.0758 -0.20459,-0.11415c-0.35558,-0.20237 -0.70011,-0.40904 -1.02844,-0.62204c-0.0502,-0.0324 -0.09786,-0.06565 -0.14764,-0.09757c-0.31175,-0.2062 -0.6133,-0.41669 -0.90173,-0.63144c-0.02975,-0.02002 -0.06253,-0.04175 -0.09101,-0.06432c-0.3007,-0.22622 -0.58483,-0.45759 -0.85875,-0.69062c-0.05318,-0.04473 -0.10551,-0.08992 -0.15656,-0.13465c-0.26708,-0.23307 -0.524,-0.46609 -0.76562,-0.70554c-0.02763,-0.02598 -0.05271,-0.0537 -0.07996,-0.0801c-0.22755,-0.22707 -0.44361,-0.45589 -0.64778,-0.68467c-0.02853,-0.03325 -0.06083,-0.0656 -0.08973,-0.098c-0.20932,-0.24072 -0.66143,-0.81162 -0.69633,-0.85724c-0.18202,-0.24072 -0.35558,-0.48144 -0.51252,-0.72089c-0.00978,-0.01488 -0.01913,-0.0298 -0.02805,-0.04473c-0.15061,-0.23047 -0.28757,-0.45717 -0.41556,-0.68339z" fill="#9a8479" stroke="#000000" stroke-linecap="butt"/><path d="M292.40621,192.60661v0v0v0v0v0v0v0v0v0v0v0v0v0v0v0v0v0v0v0c0,0 4.9548,5.61373 3.42399,11.43705c-1.53038,5.82158 -10.67611,8.28802 -17.70323,7.84535c-9.28949,-0.58582 -13.59609,-6.12965 -12.0674,-11.42038c1.53081,-5.29078 13.8292,-7.76402 13.8292,-7.76402l-2.01952,3.80125c0,0 1.59079,-0.24625 2.87572,-0.98249c1.28456,-0.73492 2.69328,-1.71528 2.69328,-1.71528l-2.9425,4.17747c0,0 3.88636,-0.04175 7.25165,-1.39148c3.36534,-1.34808 4.65882,-3.98747 4.65882,-3.98747z" fill="#e6e7e8" stroke="#000000" stroke-linecap="butt"/><g stroke="#000000"><path d="M298.74677,189.5714c0,0 7.97608,-4.48937 9.79866,-0.67191c1.82343,3.8175 -1.4381,8.29104 -8.24358,12.33859c0,0 0.15056,-6.64604 -1.55508,-11.66667v0v0v0v0v0v0v0v0v0v0v0v0v0v0v0v0v0v0v0zM298.74677,189.5714c-0.14291,-0.58752 -0.6133,-1.71103 -0.6133,-1.71103M300.12489,202.27293l0.08553,-1.07449" fill="#9a8479" stroke-linecap="round"/><path d="M300.21042,201.1976c0.04421,-1.23086 0.04293,-3.25761 -0.23439,-5.78838c-0.15949,-1.4729 -0.46789,-2.99219 -0.78432,-4.30447l0.00085,0.0017c4.67195,-1.19166 8.83015,3.13533 8.83015,3.13533h0.0017c-2.33515,3.88437 -7.77659,6.84841 -7.77659,6.84841l-0.0374,0.1074v0v0v0v0v0v0v0v0v0v0v0v0v0v0v0v0v0v0v0z" fill="#ee4036" stroke-linecap="butt"/></g><g stroke="#000000"><path d="M261.31228,204.16593c-6.62474,-2.64156 -10.1993,-6.21362 -9.19806,-9.96589c1.00171,-3.75265 8.72592,-0.88789 8.72592,-0.88789c-0.70776,4.82894 0.47214,10.85378 0.47214,10.85378v0v0v0v0v0v0v0v0v0v0v0v0v0v0v0zM261.11024,191.66162c0,0 -0.23732,1.09366 -0.26967,1.65053M261.38629,204.11478l0.24502,0.96586" fill="#9a8479" stroke-linecap="round"/><path d="M261.33698,204.02321c0,0 -5.25427,-1.86485 -7.9212,-5.04156l0.00128,-0.00043c0,0 2.97528,-4.57324 7.27295,-4.20387l0.00043,-0.00128c-0.07146,1.24196 -0.10291,2.67179 -0.01063,4.03602c0.15566,2.34587 0.47384,4.18984 0.70691,5.30268l-0.04973,-0.09158v0v0v0v0v0v0v0v0v0v0v0v0v0v0v0v0v0v0v0z" fill="#ee4036" stroke-linecap="butt"/></g><path d="M286.99325,201.76764c-0.30835,0 -0.5776,-0.22367 -0.62908,-0.53854c-0.05568,-0.3485 0.18121,-0.67654 0.52914,-0.73279c0.31648,-0.04945 3.12117,-0.48824 4.15475,-0.3596c0.34963,0.0443 0.59805,0.36385 0.55635,0.71234c-0.04425,0.35109 -0.36791,0.59479 -0.71244,0.55729c-0.64995,-0.07967 -2.67118,0.17257 -3.79747,0.35194c-0.03405,0.0068 -0.06806,0.00935 -0.10126,0.00935v0v0v0v0v0v0v0v0v0v0v0v0v0v0v0v0v0v0v0v0z" fill="#231f20" stroke="none" stroke-linecap="butt"/><path d="M276.65444,201.90399c-0.04,0 -0.08038,-0.00468 -0.12208,-0.01152c-1.47295,-0.28545 -4.06332,0.00515 -4.08882,0.0077c-0.3441,0.03835 -0.66526,-0.2105 -0.70606,-0.56112c-0.04,-0.35024 0.21097,-0.66719 0.56145,-0.70724c0.11486,-0.01152 2.80941,-0.31444 4.47591,0.00765c0.34538,0.06645 0.5725,0.40177 0.50529,0.75027c-0.05913,0.30207 -0.32668,0.51427 -0.62568,0.51427v0v0v0v0v0v0v0v0v0v0v0v0v0v0v0v0v0v0v0v0z" fill="#231f20" stroke="none" stroke-linecap="butt"/><path d="M275.86842,205.08192c0,0 1.37684,-0.15377 5.23127,-0.15377c3.85405,0 5.23132,-0.64334 5.23132,-0.64334c0,0 0.82262,5.93748 -5.08331,5.93748c-5.9063,0 -5.37929,-5.14036 -5.37929,-5.14036v0v0v0v0v0v0v0v0v0v0v0v0v0v0v0v0v0v0v0z" fill="#6d6e70" stroke="#231f20" stroke-linecap="round"/></g><path d="M214.63871,218.36586c0,-0.75104 0.21067,-1.8299 1.37605,-2.07342c1.68131,-0.35271 3.60499,1.3498 4.12819,1.85071c-0.03869,0.19933 0.61554,4.22131 0.61554,4.56961c0,1.17925 -0.31506,1.22597 -0.43735,1.24534c-1.15118,0.16758 -4.21911,-3.05846 -5.62729,-4.93542c-0.01937,-0.10187 -0.05514,-0.3286 -0.05514,-0.65682z" fill="#ffc93e" fill-rule="nonzero" stroke="#603813" stroke-width="1.32684" stroke-linecap="butt" stroke-linejoin="miter"/><path d="M209.97708,224.00152c-0.83458,-0.9054 -0.95361,-3.35927 -0.95361,-4.40308c0,-0.44285 0.02262,-0.7375 0.02372,-0.74663l0.00149,-0.02262c0,0 -0.00259,-0.0946 -0.00259,-0.12927c0,-1.96605 1.80982,-2.64808 2.11652,-2.75066c1.04783,0.01277 2.85908,0.50856 3.29136,1.25629c0.04381,0.07562 0.0847,0.17049 0.0847,0.29212c0,0.1066 -0.03175,0.23582 -0.12228,0.39173c-0.04199,0.07154 -0.78609,1.8299 -1.4155,3.17821l-0.44978,1.24683c-0.33664,1.08943 -0.86638,2.17964 -1.44291,2.17964c-0.45562,0.00072 -0.8255,-0.16064 -1.13109,-0.49255v0v0z" fill="#ffc93e" fill-rule="nonzero" stroke="#603813" stroke-width="1.32684" stroke-linecap="butt" stroke-linejoin="miter"/><path d="M233.58118,209.75094l-0.81377,-1.43592c-0.8912,-1.55204 -1.92082,-2.97305 -2.82881,-4.22384c-1.16725,-1.6112 -2.18294,-3.27826 -2.51919,-4.45608c-0.12124,-0.42425 -0.06279,-0.82913 0.11172,-1.05295c0.01679,-0.06026 0.19278,-0.15624 0.31688,-0.18183c1.49547,-0.3231 7.68575,3.23077 9.23014,5.13007c2.26252,2.78241 3.16721,6.68497 2.66266,8.65064c-0.20703,0.80326 -0.66997,1.37241 -1.34066,1.64334c-1.71301,0.69221 -2.84009,-0.55715 -4.81897,-4.07343z" fill="#ffc93e" fill-rule="nonzero" stroke="#603813" stroke-width="1.32684" stroke-linecap="butt" stroke-linejoin="miter"/><path d="M209.21366,182.32534c2.19758,-1.19427 -0.07044,-5.69119 -2.26472,-10.04061c-1.19933,-2.37831 -3.33808,-6.39511 -2.64296,-6.77154c1.34468,-0.72875 7.76863,6.85222 10.3729,9.90771l2.65463,3.0234c0,0 1.89781,2.32861 3.35014,3.86387c0.02559,0.02702 1.39872,-0.18618 2.34727,-0.97447c0.77327,-0.6451 0.67102,-1.36691 0.91713,-2.885c0.22597,-1.3947 0.47136,-3.91863 1.21981,-3.93139c1.12741,-0.01717 1.86859,4.62982 2.15735,6.35125l0.15954,0.92081c0.37863,2.0475 2.35382,8.20344 2.43851,8.46447c0.02702,0.06356 0.0716,0.14606 0.0716,0.14606l0.0164,0.03324l0.02262,0.02774c3.0501,3.78281 5.31878,8.36953 5.31878,12.66679c0,9.09977 -7.97671,15.50545 -18.65367,15.50545c-1.98031,0 -3.9172,-0.27748 -5.7569,-0.82291l-0.09895,-0.02851c0,0 -2.88797,-0.24281 -6.58239,4.61342c-0.74118,0.9748 -0.67509,1.88356 -1.71962,1.60388c-0.3483,-0.09312 -0.60426,-0.34902 -0.81311,-0.81383c-0.49942,-1.10842 -0.1307,-3.7346 0.47978,-5.41261l0.09598,-0.26361l-0.22052,-0.17451c-0.05404,-0.04309 -6.04604,-4.4093 -6.6514,-10.66606c-0.52755,-5.45383 2.22752,-8.55901 3.37061,-10.26548l0.65682,-1.09389c0.82913,-2.01751 -0.73128,-4.8226 -2.10843,-7.29798c-0.82225,-1.47791 -2.14937,-3.63455 -1.84961,-4.14129c0.33262,-0.56156 1.52139,0.03577 2.72182,0.60861c0.97337,0.46514 1.90981,1.12229 2.56008,0.68896c0.67614,-0.45017 0.23257,-1.58126 -0.38193,-3.14607c-0.5779,-1.46993 -1.67212,-3.79194 -1.25189,-4.75034c0.11573,-0.26361 0.3187,-0.44868 0.62066,-0.5659c1.11646,-0.43228 2.71269,1.44836 4.00481,2.91934c1.57576,1.79595 3.36329,3.83101 5.43886,2.70102v0v0z" fill="#ffc93e" fill-rule="nonzero" stroke="#603813" stroke-width="1.32684" stroke-linecap="round" stroke-linejoin="round"/><g fill-rule="nonzero" stroke="none" stroke-width="0.66342" stroke-linecap="butt" stroke-linejoin="miter"><path d="M211.05633,203.79394v0v0c0,-1.64219 1.33114,-2.97409 2.97338,-2.97481c1.64186,0 2.97299,1.33262 2.97299,2.97481c0,1.64114 -1.33075,2.97195 -2.97299,2.97195c-1.64186,0 -2.97338,-1.33081 -2.97338,-2.97195z" fill="#ffffff"/><path d="M214.43024,201.62091c0.57719,0 1.10039,0.23439 1.47901,0.61334c0.37896,0.37863 0.61334,0.90183 0.61334,1.47901c0,0.57724 -0.23439,1.10044 -0.61334,1.47901c-0.37863,0.37901 -0.90183,0.6134 -1.47901,0.6134c-0.57724,0 -1.10044,-0.23439 -1.47901,-0.6134c-0.37901,-0.37857 -0.6134,-0.90177 -0.6134,-1.47901c0,-0.57719 0.23439,-1.10039 0.6134,-1.47901c0.37857,-0.37896 0.90177,-0.61334 1.47901,-0.61334z" fill="#603813"/></g><g fill-rule="nonzero" stroke="none" stroke-width="0.66342" stroke-linecap="butt" stroke-linejoin="miter"><path d="M225.37994,203.79394v0v0c0,-1.64219 1.33119,-2.97409 2.97409,-2.97481c1.64186,0 2.97305,1.33262 2.97305,2.97481c0,1.64114 -1.33191,2.97195 -2.97305,2.97195c-1.6429,0 -2.97409,-1.33081 -2.97409,-2.97195z" fill="#ffffff"/><path d="M226.66111,203.71326v0v0c0,-1.15514 0.93611,-2.09236 2.09203,-2.09236c1.15514,0 2.09236,0.93754 2.09236,2.09236c0,1.1563 -0.93721,2.0917 -2.09236,2.0917c-1.15591,0 -2.09203,-0.9365 -2.09203,-2.0917z" fill="#603813"/></g><path d="M190.52604,215.27234c-0.60938,-0.38919 -0.9606,-1.03176 -1.01718,-1.86056c-0.13764,-2.02665 1.46624,-5.69702 4.19825,-8.01831c1.86567,-1.58528 8.60177,-3.94675 10.01254,-3.35635c0.11645,0.04892 0.27274,0.17451 0.27748,0.23802c0.1318,0.25084 0.11425,0.65902 -0.08255,1.05405c-0.54543,1.09675 -1.84883,2.55095 -3.29175,3.91973c-1.12157,1.06753 -2.39251,2.27308 -3.55167,3.63746l-1.06318,1.2596c-2.58749,3.09682 -3.92556,4.12126 -5.48195,3.12637v0v0z" fill="#ffc93e" fill-rule="nonzero" stroke="#603813" stroke-width="1.32684" stroke-linecap="butt" stroke-linejoin="miter"/><path d="M219.95897,211.08285v0v0l5.05737,-0.24352l-0.05261,0.43372c-0.02042,0.16537 -0.47427,2.89089 -2.69992,2.89089c-0.48484,0 -0.9065,-0.17528 -1.25299,-0.52579c-1.01899,-1.02774 -1.05625,-2.11244 -1.05405,-2.20666l0.0022,-0.34863z" fill="#603813" fill-rule="nonzero" stroke="none" stroke-width="0.66342" stroke-linecap="butt" stroke-linejoin="miter"/><path d="M140.69656,212.5747v0v0v0v0v0c-0.14904,1.10492 -0.77169,3.13707 -1.20737,3.66377c0,0 -1.798,1.98333 -3.07357,1.2713c-0.54518,-0.30404 -0.7874,-0.83616 -0.79823,-1.53465c-0.23789,-0.0797 -0.56739,-0.24276 -0.7142,-0.59393c-0.24439,-0.58202 0.99814,-1.02745 0.99814,-1.02745v0.01138c0.05911,-0.18203 0.12141,-0.36357 0.19563,-0.55541c0.42322,-1.08379 1.35473,-2.55506 1.82563,-3.37653c0,0 0.38909,-0.7245 1.34877,-0.70499c1.02095,0.02059 1.57426,1.74159 1.42521,2.84652z" fill="#be1e2d" fill-rule="nonzero" stroke="#231f20" stroke-width="0.78673" stroke-linecap="round" stroke-linejoin="round"/><path d="M149.0108,215.71015c-0.83616,-0.95757 -1.34985,-3.73366 -1.47012,-4.30105c-0.11979,-0.56733 0.20917,-1.85163 0.96292,-2.11119c0.75375,-0.26016 1.49022,0.47469 1.49022,0.47469c0.54945,0.77054 1.62187,2.14423 2.15182,3.17873c0.09216,0.18371 0.17179,0.35984 0.24981,0.5332l-0.00108,-0.01083c0,0 1.28051,0.32192 1.09517,0.92452c-0.11214,0.36466 -0.4216,0.55866 -0.6519,0.66111c0.05694,0.69632 -0.12839,1.25228 -0.64263,1.6067c-1.19762,0.83832 -3.18421,-0.95588 -3.18421,-0.95588v0v0v0z" fill="#be1e2d" fill-rule="nonzero" stroke="#231f20" stroke-width="0.78673" stroke-linecap="round" stroke-linejoin="round"/><path d="M146.51919,216.54354c0.938,-0.27256 2.08952,0 2.08952,0c0,0 0.50996,3.09855 0.66599,4.21972c0.15662,1.1228 0.73756,2.87854 0.73756,2.87854c0,0 0.29315,0.17559 0.2108,0.63402c-0.08457,0.45735 -1.09138,0.5462 -2.35401,0.78631c-1.26046,0.23735 -2.29111,0.03413 -2.48945,-0.41672c-0.19996,-0.44869 0.17288,-0.65786 0.17288,-0.65786c0,0 0.58737,-3.70061 0.05255,-4.97408c0.00271,0.00271 -0.28177,-2.12256 0.91417,-2.46994v0v0v0v0v0z" fill="#be1e2d" fill-rule="nonzero" stroke="#231f20" stroke-width="0.90025" stroke-linecap="round" stroke-linejoin="round"/><path d="M142.47614,216.89092v0v0v0v0v0c1.69067,0.77542 1.87059,2.32957 1.87113,2.3312c-0.33486,1.33631 0.73647,4.44082 0.73647,4.44082c0,0 0.40095,0.14742 0.27527,0.62156c-0.12791,0.47523 -1.11251,0.83616 -2.39735,0.79552c-1.28268,-0.04177 -2.29056,0.026 -2.44502,-0.41456c-0.15446,-0.44056 0.10895,-0.6584 0.10895,-0.6584c0,0 0.0298,-1.0605 0.00975,-2.19413c-0.02119,-1.13038 -0.20647,-4.23327 -0.20647,-4.23327c0,0 0.93963,-1.19702 2.04726,-0.68874z" fill="#be1e2d" fill-rule="nonzero" stroke="#231f20" stroke-width="0.90025" stroke-linecap="round" stroke-linejoin="round"/><g fill-rule="nonzero" stroke-width="0.90025"><path d="M148.99726,212.5682v0v0v0v0v0c0.24981,1.6864 -0.15175,4.79199 -2.0841,5.88228c-1.91128,1.07621 -3.9385,0.93204 -6.03993,-0.50178c-1.74111,-1.18841 -1.6994,-4.58715 -1.51731,-6.48868v0c0,0 0.01192,-4.39904 3.71415,-4.94097c3.70109,-0.54187 5.41999,2.83358 5.7061,4.93934c0.08999,0.37067 0.16692,0.74893 0.22109,1.1098z" fill="#be1e2d" stroke="#000000" stroke-linecap="butt" stroke-linejoin="miter"/><path d="M147.97637,217.40082v0v0v0v0v0l-0.00921,0.08614c-0.284,0.39234 -0.63294,0.7251 -1.05346,0.96244c-1.77037,0.99705 -3.63939,0.94721 -5.57553,-0.20538l-0.02004,-0.08668c0,0 -1.02529,-5.59456 2.54145,-5.84436c4.0501,-0.28177 4.14225,4.15201 4.11679,5.08784z" fill="#e6e7e8" stroke="#231f20" stroke-linecap="round" stroke-linejoin="round"/></g><g fill-rule="nonzero" stroke-width="0.90025"><g stroke="#000000" stroke-linecap="round" stroke-linejoin="round"><path d="M170.57436,194.59853l-0.32186,0.93204c-1.78554,4.70796 -4.3238,7.41741 -4.3238,7.41741c0,0 0.09107,-0.84049 0.04232,-2.19088l-0.07916,-0.02763c-0.22868,0.71095 -0.60423,1.62783 -1.22844,2.76044c-1.36887,2.48728 -5.38863,4.57246 -5.38863,4.57246c0,0 0.24987,-0.85512 0.40643,-2.25427l-0.05634,-0.21405c-0.43568,0.33546 -0.88762,0.64378 -1.34443,0.94396c-0.13441,0.08891 -0.26877,0.17559 -0.40535,0.25956c-0.41564,0.25853 -0.83886,0.50509 -1.27076,0.73539c-0.17065,0.08993 -0.34786,0.17342 -0.52074,0.25956c-0.31536,0.15771 -0.63511,0.30669 -0.95967,0.45085c-0.23843,0.10456 -0.47848,0.20863 -0.72293,0.30561c-0.25306,0.10191 -0.51315,0.19346 -0.77163,0.28887c-0.47523,0.17011 -0.95751,0.3289 -1.45068,0.47523c-0.1609,0.04767 -0.32186,0.09535 -0.48553,0.13977c-0.35165,0.09649 -0.70608,0.19075 -1.06694,0.27424l0.00108,0.00108c-1.8116,0.42214 -3.73366,0.69741 -5.79127,0.82418c-2.2261,0.13658 -4.2441,0.11437 -6.12878,-0.01679v0c-1.49131,-0.10456 -2.88721,-0.28339 -4.20889,-0.52507c-0.06393,-0.01138 -0.12845,-0.0233 -0.19292,-0.03467c-0.4086,-0.07753 -0.81069,-0.15988 -1.20515,-0.24872c-0.13766,-0.03202 -0.26937,-0.0667 -0.40643,-0.09974c-0.52405,-0.1246 -1.03341,-0.26118 -1.53573,-0.40643c-0.31752,-0.0921 -0.63294,-0.18642 -0.94125,-0.28664c-0.18317,-0.05797 -0.36688,-0.1187 -0.54626,-0.17992c-0.48986,-0.16909 -0.97538,-0.34082 -1.44628,-0.52616l-0.08186,0.07855c0.17775,1.27292 0.61669,1.95787 0.96732,2.28406c0.71474,0.66599 2.0906,0.82424 2.0906,0.82424c0,0 -4.20564,0.58852 -6.49566,-2.65853c-0.2433,-0.34515 -0.48878,-0.70283 -0.72179,-1.08379l-0.10028,-0.21784c-0.49744,-0.16632 -1.00139,-0.38741 -1.49889,-0.67195c-3.03348,-1.74761 -3.41445,-3.18902 -3.41445,-3.18902l0.06338,0.52832c0.29212,1.377 0.57714,2.24614 0.57714,2.24614c0,0 -3.63066,-2.29761 -5.24772,-5.74077c-1.30374,-2.7794 -1.40728,-4.46303 -1.41594,-4.74594l-0.12195,-1.01114c-0.07855,-3.95963 0.16746,-8.40098 0.71155,-12.77029l0.03359,-0.11648c0.48498,-3.37761 0.01463,-8.97325 4.49607,-14.69885c8.39773,-10.72628 16.97695,-10.35344 22.10813,-18.28075c3.77429,-5.8319 2.80486,-12.52048 2.80486,-12.52048c0,0 2.31446,3.27684 3.23784,5.20113c0.89412,1.87547 1.84892,4.29286 1.84892,4.29286l0.03088,-0.02059c0.02113,-0.07049 0.04009,-0.14254 0.05634,-0.21459c0.25203,-1.12226 0.15229,-2.78157 0.15229,-2.78157c0,0 2.20659,6.46695 5.769,10.70672c3.56024,4.23766 8.70605,5.44877 15.20279,19.96119c0.80853,1.80341 1.56011,3.32127 1.96221,5.00387l0.18209,0.96834c0.56631,3.02596 0.34359,11.38571 -0.84645,14.99747v0v0v0v0v0zM128.95589,180.38575c0,0 -4.20835,4.37141 -3.93091,10.4542c0.24547,5.38207 1.64035,7.04457 2.39193,7.46075c0.77277,0.42539 1.97087,0.17342 1.97087,0.17342c0,0 -3.38899,1.79475 -6.15159,-0.64052c-1.84784,-1.62783 -3.8588,-3.7277 -4.42186,-9.65055M163.97577,190.0791c0,0 0.52291,1.49673 -0.75164,4.62507c-1.43382,3.52448 -4.45924,4.61478 -4.45924,4.61478c0,0 2.51382,-5.4298 0.40426,-10.53498c-0.92067,-2.23043 -3.76237,-3.89185 -6.72867,-5.06503c-4.01976,-1.59105 -8.26771,-2.28467 -8.26771,-2.28467M165.91029,200.67043c-0.22651,0.71962 -0.60742,1.65871 -1.25011,2.82166c-1.36833,2.48728 -5.38809,4.57246 -5.38809,4.57246c0,0 0.72618,-2.49486 0.47854,-5.92996M119.67162,192.54742c-0.41293,0.76627 -0.73045,1.58774 -0.90821,2.45532c-1.1163,5.40922 0.84807,11.36735 0.84807,11.36735c0,0 -3.62958,-2.29658 -5.24772,-5.74083c-1.43436,-3.05683 -1.41594,-4.7882 -1.41594,-4.7882M170.2498,195.53437c-1.78662,4.70796 -4.32434,7.41741 -4.32434,7.41741c0,0 0.52405,-4.77513 -1.58991,-9.88085c-0.09535,-0.23084 -0.20322,-0.45519 -0.31752,-0.67303M144.17331,181.43427c0,0 0.71968,0.19075 2.61844,1.70211c1.89882,1.51135 2.59731,3.16031 2.59731,3.16031c0,0 -5.60641,-1.47662 -8.71038,-2.59292c-3.10072,-1.11738 -13.56413,-3.96667 -13.56413,-3.96667M126.41985,203.91416c1.51996,2.3876 3.10126,3.68652 3.10126,3.68652c0,0 -3.71903,1.15151 -7.1357,-0.81503c-3.03348,-1.74755 -3.41445,-3.18902 -3.41445,-3.18902M159.62109,205.59731c-4.00838,3.08392 -8.8708,4.59527 -14.78504,4.95939c-7.05107,0.43406 -12.20501,-0.59604 -16.61007,-2.32415M128.10077,207.91713c0.13333,1.52706 0.62427,2.3188 1.00957,2.67641c0.71529,0.66599 2.09114,0.82424 2.09114,0.82424c0,0 -4.20672,0.58852 -6.4962,-2.65853c-0.2433,-0.34515 -0.48878,-0.70283 -0.72179,-1.08379M144.58028,181.61528c0,0 15.35833,1.87336 15.35833,10.25586" fill="#be1e2d"/><path d="M162.94886,195.49591c-0.57281,6.02856 -7.50307,12.31829 -17.64511,12.91114c-8.95375,0.52832 -22.18566,-3.49794 -24.10561,-10.9121c-0.19075,-0.74514 -0.29206,-1.46476 -0.31969,-2.15621l0.19455,0.142c0.67953,0.99489 1.43328,1.71234 2.16319,2.35395c2.76261,2.43419 6.15159,0.63944 6.15159,0.63944c0,0 -1.1981,0.25306 -1.97087,-0.17234c-0.75158,-0.41618 -2.14646,-2.07868 -2.39193,-7.46075c-0.27743,-6.08387 3.93091,-10.4542 3.93091,-10.4542l0.01463,-0.13983c3.14947,0.87245 9.42404,2.63361 11.70708,3.45676c3.10397,1.11684 8.71038,2.59292 8.71038,2.59292c0,0 -0.69849,-1.64896 -2.59731,-3.16031c-0.95046,-0.75592 -1.60453,-1.18131 -2.02071,-1.41811l0.39018,0.06122c0,0 11.84143,1.75032 14.01011,7.00448c2.10902,5.10572 -0.40372,10.53498 -0.40372,10.53498c0,0 2.57619,-0.92934 4.09783,-3.83984l0.08451,0.01679v0v0v0v0v0z" fill="#e6e7e8"/></g><g stroke="#000000" stroke-linecap="round" stroke-linejoin="miter"><path d="M167.13391,184.49057c0,0 5.45683,-6.10982 5.76033,-6.39923c0.30344,-0.28935 2.55879,-3.05407 9.05878,-3.99863c0,0 -4.17416,18.5615 -13.89736,22.80723c0,-0.00054 0.925,-5.31164 -0.92175,-12.40937v0v0v0zM167.17183,184.64015c-0.14037,-0.58689 -0.56414,-1.62355 -0.56414,-1.62355M167.58964,198.32292c0,0 0.37332,-0.88979 0.46602,-1.42353" fill="#be1e2d"/><path d="M171.93071,193.98239c0,0 -0.97376,-0.74839 -1.08596,-3.21021c-0.07205,-1.52706 0.59881,-4.31182 0.59881,-4.31182l-0.05417,0.08885c0.42539,-0.49203 0.87408,-1.06694 1.28051,-1.69771c0.68874,-1.067 1.4945,-2.6672 2.23314,-4.24464l0.11431,-0.2173c0,0 1.953,-2.85633 6.00093,-3.21779l0.04659,0.02546c-0.85289,2.82166 -2.24397,6.96012 -3.78458,9.78713c-1.72805,3.1712 -3.72764,5.47423 -5.42108,7.05601l0.07151,-0.05797v0v0v0v0v0zM169.75777,188.13971c0,0 1.42028,-1.38783 1.68579,-1.67935" fill="#929497"/></g><g stroke="#000000" stroke-linecap="round" stroke-linejoin="miter"><path d="M114.46134,196.89939c-9.72266,-4.24573 -13.89688,-22.80723 -13.89688,-22.80723c6.50006,0.94511 8.75541,3.70982 9.05884,3.99863c0.30344,0.28887 5.76033,6.39923 5.76033,6.39923c-1.8473,7.09826 -0.92229,12.40937 -0.92229,12.40937v0v0v0zM115.90925,183.01659c0,0 -0.42377,1.03666 -0.56408,1.62355M114.46134,196.89939c0.09264,0.53374 0.46602,1.42353 0.46602,1.42353" fill="#be1e2d"/><path d="M110.6578,194.04035c-1.69344,-1.58232 -3.69248,-3.88535 -5.42114,-7.05601c-1.54115,-2.82701 -2.93163,-6.96548 -3.78458,-9.78713l0.04665,-0.02546c4.04847,0.36201 6.00093,3.21779 6.00093,3.21779l0.11431,0.2173c0.73858,1.57745 1.5444,3.17764 2.23314,4.24464c0.40643,0.63077 0.85512,1.20569 1.28051,1.69771l-0.05417,-0.08885c0,0 0.67086,2.78476 0.59875,4.31182c-0.11214,2.46182 -1.08596,3.21021 -1.08596,3.21021l0.07157,0.05797v0v0v0v0v0zM111.07344,186.46036c0.26552,0.29152 1.68579,1.67935 1.68579,1.67935" fill="#929497"/></g><path d="M136.65892,192.6775v0v0v0v0v0c0.43189,0.12081 0.68278,0.56841 0.56083,1.0003c-0.12081,0.43298 -0.56625,0.68386 -1.00139,0.56522c-0.02492,-0.00758 -2.54639,-0.69307 -5.01146,0.02546c-0.07584,0.02167 -0.15121,0.03305 -0.22651,0.03305c-0.3522,0 -0.67736,-0.23193 -0.78084,-0.58629c-0.06128,-0.20701 -0.03094,-0.41997 0.0623,-0.59881c-0.15229,-0.13333 -0.2964,-0.30561 -0.39614,-0.54301c-0.11702,-0.27527 0.01192,-0.59387 0.28827,-0.71041c0.2737,-0.11323 0.59339,0.01029 0.71101,0.28779c0.09318,0.22109 0.36303,0.28448 0.36628,0.28556c0.0797,0.01788 0.14958,0.05472 0.20972,0.10239c0.08024,-0.01679 0.16096,-0.03413 0.24005,-0.04767c-0.08343,-0.12569 -0.1609,-0.2666 -0.20755,-0.44002c-0.07693,-0.28989 0.09541,-0.58527 0.3853,-0.66274c0.29206,-0.08018 0.58635,0.09649 0.66274,0.3853c0.06122,0.23084 0.31319,0.3354 0.31536,0.33648c0.11762,0.04015 0.2043,0.12141 0.26774,0.21784c1.94102,-0.09047 3.46754,0.32517 3.55428,0.34955z" fill="#231f20" stroke="none" stroke-linecap="butt" stroke-linejoin="miter"/><path d="M156.05056,192.00989v0v0v0v0v0c-0.09541,0.48336 -0.3853,0.77217 -0.62211,0.94613c0.06013,0.15229 0.09107,0.31975 0.04876,0.49094c-0.10781,0.43514 -0.53862,0.70397 -0.98405,0.59502c-1.68802,-0.41618 -3.87349,-0.56733 -4.31296,-0.11973c-0.15873,0.1609 -0.36682,0.24222 -0.57762,0.24222c-0.20755,0 -0.41293,-0.07861 -0.57172,-0.23518c-0.31969,-0.31433 -0.32402,-0.82857 -0.00867,-1.14941c0.84916,-0.86264 2.64119,-0.84043 4.07508,-0.6519c0.06989,-0.06013 0.18094,-0.18311 0.19178,-0.35328c0.01523,-0.29748 0.24878,-0.5468 0.56847,-0.51315c0.29856,0.01517 0.52778,0.26877 0.51315,0.56841c-0.01083,0.18859 -0.05743,0.34792 -0.11539,0.49311c0.07097,0.01463 0.13869,0.02763 0.20213,0.04232c0.05634,-0.08674 0.12677,-0.16313 0.22868,-0.20755c0.01517,-0.00867 0.25522,-0.12791 0.30181,-0.35984c0.05959,-0.29315 0.3398,-0.48878 0.63727,-0.42539c0.29315,0.05959 0.48336,0.34305 0.42539,0.63727z" fill="#231f20" stroke="none" stroke-linecap="butt" stroke-linejoin="miter"/><path d="M149.73584,197.9691c0,0 -1.56553,3.9775 -6.47616,3.95637c-4.91171,-0.01794 -6.85598,-3.00158 -6.85598,-3.00158" fill="none" stroke="#231f20" stroke-linecap="round" stroke-linejoin="miter"/></g><path d="M61.31308,209.51625c0,0 3.73668,5.1633 1.07804,7.10573c-1.42662,1.04884 -3.40834,-1.02682 -3.95507,-1.77704c-0.79241,-1.0899 -1.05358,-1.35226 -1.22313,-2.71876c-0.16776,-1.3636 -0.83822,-6.37752 -0.56638,-8.19267c0.42775,-2.84427 2.38561,-7.57804 3.8051,-0.95424c0,0 0.44739,3.75217 0.80434,6.25913l0.05709,0.27785v0v0zM60.50399,208.47453l0.8085,1.04172" fill="#f05a28" fill-rule="nonzero" stroke="#000000" stroke-width="0.9025" stroke-linecap="round" stroke-linejoin="miter"/><g fill-rule="nonzero" stroke-width="0.9025"><path d="M59.09346,203.58137c-0.25702,1.70796 -0.94178,6.15676 -0.8317,7.03546l-0.16005,-0.35873c0.32841,0.92807 0.66038,2.24764 0.5551,3.62066c-0.20468,2.66464 -1.66755,4.09244 -3.22212,4.85453l-0.01727,0.08688l-1.3338,5.31979c0.02564,-0.00059 0.25227,0.01305 1.84725,0.16658c2.02154,0.19393 1.08034,1.41172 1.08034,1.41172l-3.76819,-0.06664l-0.19275,-0.00237l-7.61436,-0.13625c-0.09341,-0.30995 -0.01905,-1.26835 0.46348,-3.69265c0.18615,-0.95246 0.35873,-1.77164 0.50922,-2.4415l0.00119,-0.00481c-2.57242,-1.99952 -2.26366,-5.09369 -1.47955,-7.28298c0.49973,-1.40045 3.35237,-11.97153 3.35237,-11.97153c0,0 1.2398,-4.05968 6.37093,-2.64678c0,0 5.9064,0.98278 4.4405,6.10627c0,0.00237 -0.00059,0.00237 -0.00059,0.00237v0v0zM51.57962,219.43118c0,0 1.51231,0.2439 3.85448,-0.6961M58.26176,210.61861c-0.13447,-0.6145 -0.93045,-1.69787 -0.93045,-1.69787M46.87025,217.49764c0,0 -0.17192,0.53605 -0.46044,1.87816" fill="#f05a28" stroke="#000000" stroke-linecap="round" stroke-linejoin="round"/><path d="M53.4096,225.58319c-0.00475,0 -0.00949,0 -0.01246,0c-0.1648,-0.00771 -0.29215,-0.14634 -0.28497,-0.30995c0.00653,-0.14753 -0.03276,-0.26058 -0.12261,-0.35695c-0.37831,-0.40098 -1.52477,-0.41878 -2.21006,-0.42953c-0.20586,-0.00297 -0.38912,-0.00653 -0.53309,-0.01543c-0.08985,-0.00659 -0.17251,-0.05359 -0.22366,-0.12736c-0.05115,-0.07436 -0.06664,-0.16776 -0.04107,-0.25464c0.24568,-0.82926 0.48365,-1.66814 0.72161,-2.50696l0.30105,-1.05833c0.04522,-0.15827 0.20824,-0.25227 0.36763,-0.20408c0.15827,0.04463 0.24931,0.21002 0.20468,0.3677l-0.30105,1.05655c-0.20283,0.71627 -0.40632,1.43374 -0.6145,2.14408c0.041,0.00059 0.08385,0.00119 0.12729,0.00237c0.87929,0.01252 2.08343,0.03151 2.63432,0.61575c0.20165,0.21298 0.29743,0.48009 0.28497,0.78885c-0.00896,0.16302 -0.14041,0.28793 -0.29809,0.28793v0v0v0z" fill="#000000" stroke="none" stroke-linecap="butt" stroke-linejoin="miter"/></g><path d="M49.37609,205.58148l-1.95192,3.21315l0.0089,-0.05656c0.06249,2.25772 -0.08985,6.17884 -1.88706,6.82076c-0.96795,0.34383 -3.24354,0.89775 -3.03649,-5.3132c0.16598,-5.00265 4.63265,-9.4235 6.36262,-10.95183c0,0 1.53967,0.85668 1.60038,2.51052c0.06065,1.65391 -1.09762,3.77478 -1.09643,3.77715v0v0zM47.43365,208.73808c0,-0.95721 -0.26532,-1.55213 -0.26532,-1.55213" fill="#f05a28" fill-rule="nonzero" stroke="#000000" stroke-width="0.9025" stroke-linecap="round" stroke-linejoin="miter"/><g fill-rule="nonzero" stroke-linejoin="miter"><path d="M29.07386,162.72655c0,0 0.55332,-2.26781 5.26152,-7.08786c4.70575,-4.81762 9.80003,-6.47686 13.17857,-7.86182c3.37854,-1.38502 5.64701,-8.30506 5.64701,-8.30506c0,0 3.11078,3.86931 6.30791,7.38766c3.26252,3.58797 10.85961,6.73269 19.00047,14.92648c0.97151,0.98107 1.79728,2.00789 2.49154,3.06147l0.14041,0.12314c1.81864,1.57711 8.26696,7.869 7.44,17.02956c-0.63177,6.97897 -3.80504,9.18435 -5.34352,9.77689l-0.01252,0.05115c0.79248,-1.56999 1.26419,-3.23576 1.48733,-4.92711c0.73533,-5.59342 -2.27855,-9.22779 -4.21083,-14.09241c-2.50518,-6.30857 -9.35805,-9.85784 -18.23126,-9.68111c-16.88737,0.33375 -20.60678,9.82805 -20.60678,9.82805l-0.01252,0.12314c3.13286,5.81827 4.384,18.72387 -2.03103,22.58606c-6.90995,4.15434 -17.14135,2.70452 -21.12615,-13.34759c-3.64742,-14.69089 7.27409,-19.31938 10.48664,-19.28128l0.13322,-0.30936v0v0zM80.96027,164.84742c0,0 4.43094,7.03968 2.98883,15.73913M28.94004,163.03531c3.10663,0.08385 5.18887,2.30769 5.18887,2.30769M41.61058,173.07753c-0.52293,-0.81561 -0.8876,-1.48733 -0.8876,-1.48733" fill="#f05a28" stroke="#000000" stroke-width="0.9025" stroke-linecap="round"/><path d="M84.15556,189.43953c0,0 1.39807,-2.53669 2.34164,-7.18602c0.94231,-4.65223 -0.31476,-10.978 -0.31476,-10.978c1.56168,2.8324 2.7444,6.46737 2.36247,10.72461c-0.61219,6.79993 -3.76825,9.11889 -5.34477,9.77689l0.95543,-2.33748v0v0z" fill="#404041" stroke="#000000" stroke-width="0.9025" stroke-linecap="butt"/><g stroke="#231f20" stroke-width="0.9025"><path d="M18.81747,183.74736v0v0c-0.71331,-2.75449 -1.3338,-7.04976 -0.7615,-10.38961c0.5878,-3.44637 2.61467,-5.6797 4.84563,-6.2211c4.17695,-1.01792 9.22601,5.00324 11.28143,13.44515c1.93465,7.95766 0.52412,15.22456 -3.14176,16.88856c0,0 -1.20052,0.15287 -3.62303,-1.17738c-2.42074,-1.3284 -4.51367,-3.60992 -5.36738,-5.08531c-0.85609,-1.47362 -2.51889,-4.70048 -3.23339,-7.46031z" fill="#404041" stroke-linecap="butt"/><path d="M21.4119,176.72733c1.60691,-0.68833 4.33404,2.07987 6.09196,6.18537c1.75621,4.10259 1.87935,7.99036 0.27429,8.67809c-1.60809,0.68714 -4.33397,-2.08225 -6.09078,-6.18656c-1.75918,-4.10378 -1.88113,-7.98858 -0.27548,-8.67691v0v0zM28.47894,190.91973c-6.61668,-4.19363 -6.54285,-14.2959 -6.54285,-14.2959" fill="#929497" stroke-linecap="round"/></g><path d="M39.02926,196.04434v0v0l-0.03573,-0.04581c0.19756,-0.10705 0.39268,-0.21892 0.58543,-0.33434c6.42334,-3.86693 5.15914,-16.80227 2.01916,-22.60689l0.02558,-0.10231c0,0 3.71941,-9.49549 20.61034,-9.82864c8.87321,-0.17673 15.72489,3.37254 18.23066,9.68111c1.93169,4.86521 4.94675,8.49958 4.21024,14.09241c-0.76861,5.82064 -4.4869,11.38077 -14.06742,13.64739c-9.58059,2.2744 -9.19509,1.05602 -12.40647,2.43564c-3.21071,1.38733 -3.3767,1.99589 -3.3767,1.99589c0,0 1.0286,-2.01316 -3.08646,-3.04176c-6.21332,-1.54797 -11.93468,-5.36382 -12.70864,-5.89269z" fill="#e6e7e8" stroke="#000000" stroke-width="0.9025" stroke-linecap="round"/><path d="M64.72794,194.76999c-7.56439,0.50988 -8.40921,-9.32713 -8.40921,-9.32713c0,0 4.32329,-0.13737 9.9024,-0.48365c5.57799,-0.34383 6.91535,0 6.91535,0c0,0 -0.84594,9.30037 -8.40855,9.81078v0v0z" fill="#ffffff" stroke="#000000" stroke-width="0.98409" stroke-linecap="round"/><path d="M76.19618,179.32176c-0.094,0 -0.18859,-0.01305 -0.28497,-0.03982c-0.53487,-0.15649 -0.84363,-0.71871 -0.68477,-1.25411c0.07198,-0.2499 0.08747,-0.50804 0.04641,-0.76624c-0.15293,-0.97033 -1.09228,-1.63189 -2.0715,-1.47777c-0.98997,0.15583 -1.66992,1.07323 -1.51765,2.04533c0.08688,0.55148 -0.29031,1.06901 -0.84238,1.15529c-0.5557,0.08688 -1.06907,-0.28912 -1.15536,-0.84238c-0.32722,-2.0715 1.10777,-4.02705 3.20069,-4.35836c2.0893,-0.32366 4.05612,1.08984 4.3869,3.16015c0.08747,0.55629 0.05234,1.11133 -0.10652,1.65035c-0.12966,0.4408 -0.53243,0.72755 -0.97085,0.72755v0v0v0z" fill="#000000" stroke="none" stroke-width="0.9025" stroke-linecap="butt"/><path d="M56.91484,179.32176c-0.09341,0 -0.18859,-0.01305 -0.28497,-0.03982c-0.53539,-0.15649 -0.84356,-0.71871 -0.68529,-1.25411c0.07198,-0.2499 0.08741,-0.50804 0.04759,-0.76624c-0.15353,-0.97033 -1.0899,-1.63189 -2.07209,-1.47777c-0.98997,0.15583 -1.66999,1.07323 -1.51765,2.04533c0.08622,0.55148 -0.29031,1.06901 -0.84244,1.15529c-0.55563,0.08688 -1.06907,-0.28912 -1.15589,-0.84238c-0.32663,-2.0715 1.10829,-4.02705 3.20063,-4.35836c2.08581,-0.32366 4.05797,1.08984 4.38697,3.16015c0.08741,0.55629 0.05293,1.11133 -0.10593,1.65035c-0.12966,0.4408 -0.53243,0.72755 -0.97092,0.72755v0v0v0z" fill="#000000" stroke="none" stroke-width="0.9025" stroke-linecap="butt"/></g><path d="M417.60927,193.25242c2.14236,4.42491 1.51759,8.52308 0.89385,15.24803c-0.75307,8.05407 -6.22805,12.87792 -9.58805,10.59781c-3.35602,-2.27909 0.3954,-8.26839 1.59717,-9.84865c0.92619,-1.21771 3.68032,-11.6444 4.89797,-16.36527c0,0 0.11738,-0.68493 0.84513,-0.65363c0.7282,0.03188 1.35393,1.02268 1.35393,1.02171v0z" data-paper-data="{&quot;index&quot;:null}" fill="#1b75bb" fill-rule="nonzero" stroke="#000000" stroke-width="0.77378" stroke-linecap="butt" stroke-linejoin="miter"/><path d="M421.52783,220.32137c0.03883,1.76984 -0.39341,4.32502 -2.12494,4.24691c-1.13903,-0.05123 -0.94207,-2.5159 -1.02165,-5.0338c-0.05175,-1.63201 -0.39939,-2.9959 -0.63865,-3.7574c0,0 -0.05573,-0.13281 -0.05573,-0.18006c-0.00051,-1.12116 0.62027,-1.49869 1.40863,-1.61659c0.98886,-0.14824 1.10875,0.7073 1.1137,0.72968c0.20249,0.86949 0.54917,1.96179 0.54917,1.96179c0.46657,1.53051 0.74658,2.61689 0.76947,3.64947v0z" data-paper-data="{&quot;index&quot;:null}" fill="#1b75bb" fill-rule="nonzero" stroke="#000000" stroke-width="0.77378" stroke-linecap="butt" stroke-linejoin="miter"/><path d="M426.17863,220.32137c0.03831,1.76984 -0.39296,4.32502 -2.12442,4.24691c-1.13961,-0.05123 -0.94213,-2.5159 -1.02268,-5.0338c-0.05123,-1.63201 -0.39843,-2.9959 -0.63769,-3.7574c0,0 -0.05618,-0.13281 -0.05618,-0.18006c0,-1.12116 0.62072,-1.49869 1.40863,-1.61659c0.98886,-0.14824 1.10875,0.7073 1.11319,0.72968c0.20346,0.86949 0.54917,1.96179 0.54917,1.96179c0.46708,1.53051 0.74607,2.61689 0.76998,3.64947v0z" data-paper-data="{&quot;index&quot;:null}" fill="#1b75bb" fill-rule="nonzero" stroke="#000000" stroke-width="0.77378" stroke-linecap="butt" stroke-linejoin="miter"/><g data-paper-data="{&quot;index&quot;:null}" fill-rule="nonzero" stroke="#000000" stroke-width="0.77378" stroke-linecap="butt" stroke-linejoin="miter"><path d="M418.76129,215.59799c-0.69438,-0.07309 -1.42213,-0.21785 -2.18118,-0.45165c-5.40484,-1.66236 -3.32664,-8.62702 -2.59896,-11.32999c0.29249,-1.09178 0.57006,-2.69397 0.79685,-4.21599l0.04082,-0.09552l0.4352,-3.67338c0.24472,-0.31036 0.11391,-1.03161 0.95107,-1.4688c0.99182,-0.51683 3.09985,-0.81774 4.15885,-0.81877c3.89471,-0.00399 5.64558,1.38928 5.64558,1.38928c0.65112,1.42753 -0.00399,2.09556 1.08432,4.48611c1.98268,4.35529 1.6171,5.01889 2.08469,5.11885c0.0691,0.01395 0.05515,0.95454 0.15916,0.97395c0.00199,0.33176 -0.01845,1.29524 -0.28355,2.56559c0,0 -0.72672,3.01532 -1.97618,4.46972c-0.21837,0.25565 -0.51979,0.55315 -0.89289,0.86004c0,0 -1.05945,0.85252 -2.04285,1.32461c-0.98436,0.471 -2.67552,0.70827 -3.46343,0.82565c-0.78792,0.11841 -1.91749,0.03934 -1.91749,0.04031v0z" fill="#1b75bb"/><path d="M412.99331,210.28218c-0.15865,-2.39254 0.59937,-5.00095 0.9834,-6.42353c0.39097,-1.44547 0.74909,-3.78228 1.00076,-5.64609l0.1134,-0.09302c0.56608,-0.4989 1.03958,-1.45241 2.36619,-1.21463c2.90488,0.52275 4.21156,3.31668 4.21156,7.40687c0,4.09122 -2.25472,7.74069 -4.57861,7.74069c-1.16294,0 -3.30183,-0.33974 -4.06384,-1.68074l-0.03285,-0.08955v0z" fill="#d0d2d3"/></g><path d="M425.94233,194.65662c4.12555,2.67353 5.71475,6.50061 8.66835,12.57643c3.53363,7.2756 1.352,14.23885 -2.70239,14.03141c-4.05387,-0.20892 -3.95192,-7.27657 -3.74255,-9.25076c0.15968,-1.52061 -2.88894,-11.86521 -4.2966,-16.53292c0,0 -0.25662,-0.64714 0.38351,-0.99876c0.63968,-0.35021 1.68871,0.17459 1.68968,0.17459v0z" data-paper-data="{&quot;index&quot;:null}" fill="#1b75bb" fill-rule="nonzero" stroke="#000000" stroke-width="0.77378" stroke-linecap="butt" stroke-linejoin="miter"/><g data-paper-data="{&quot;index&quot;:null}" fill-rule="nonzero" stroke-width="0.77378"><path d="M399.22604,177.46564v0c-0.00649,0.02141 -0.02783,0.09604 -0.0592,0.22435l-0.01691,0.08157c0,0 -0.67548,-11.47623 7.20148,-17.01934c0.28304,-0.19992 0.56955,-0.3875 0.85606,-0.56755l0.03233,-0.02089c-1.16442,-0.44664 -3.73111,-1.45839 -5.96243,-3.93398c-2.57562,-2.85911 -5.26162,-7.52084 -0.31286,-11.64234c4.69053,-3.9057 10.46596,3.44505 11.75522,6.51109c1.64545,3.91708 0.3641,6.6061 0.33922,6.65778c1.12714,-0.26459 2.25427,-0.42729 3.36347,-0.50533l0.0682,-0.01048c-0.69291,-4.40106 -1.43209,-14.75215 7.15816,-14.00705c9.03245,0.78348 5.86003,10.93555 3.75894,15.87286l0.05573,0.09848c0.43076,0.19844 0.83413,0.40839 1.2037,0.62123l0.28651,0.11346c1.35643,-3.4635 4.08524,-8.08492 9.47716,-11.08526c9.58156,-5.33574 16.36424,-1.41564 18.6538,1.70363c2.21197,3.01776 2.29104,11.41053 -5.70575,16.16773c-3.82014,2.27221 -6.94184,3.69376 -9.31453,4.58466l-0.08505,0.03034c0,0 1.0356,0.88537 1.65689,2.80685l0.06563,-0.07508c0.84757,-0.57848 3.91161,-2.28114 9.54826,-1.32757c6.73293,1.14205 7.76454,5.01284 7.34625,8.39027c-0.41186,3.32863 -3.62813,7.74564 -11.59509,7.58847c-6.30467,-0.12284 -7.71086,-3.05659 -7.71086,-3.05659c-2.61284,3.62864 -6.54786,5.79684 -9.65118,7.19801l-0.04776,0.02886c0.04969,-0.02983 0.09597,-0.06171 0.14522,-0.09205c-3.34007,2.05731 -7.98638,3.40378 -13.20621,2.95463c-10.66093,-0.9197 -14.8327,-5.01837 -17.22724,-8.22564c-3.53511,-4.73836 -2.13638,-9.85515 -2.07717,-10.06509zM407.0294,160.29562c0.45262,-0.28998 0.91822,-0.56158 1.39423,-0.81279M416.8562,159.16501c-0.12638,-0.54615 -0.24222,-1.09532 -0.34423,-1.64744M427.44455,159.01626c-0.39444,0.93268 -0.81929,1.85482 -1.29228,2.75015M443.72375,174.43496c0.30239,1.06446 0.40537,2.17816 0.3551,3.28241" fill="#1b75bb" stroke="#000000" stroke-linecap="round" stroke-linejoin="round"/><path d="M451.20872,188.64141v0l0.04082,-0.06415c2.16916,-4.8099 1.9155,-10.91466 -0.7685,-16.10556l0.06364,-0.00399c0.82424,0.02533 1.726,0.11089 2.70541,0.27706c6.73293,1.14205 7.76454,5.01284 7.34625,8.39027c-0.37156,3.00285 -3.02477,6.88958 -9.38762,7.50638z" fill="#f1f1f2" stroke="#000000" stroke-linecap="butt" stroke-linejoin="miter"/><path d="M452.62236,165.91233v0l-0.02237,-0.02385c-0.00598,-2.14634 -0.38403,-4.34289 -1.17689,-6.4927c-2.06869,-5.59885 -6.47573,-9.61042 -11.5697,-11.20515l-0.08903,-0.02931c8.87522,-4.27475 15.1401,-0.57649 17.32077,2.39602c2.09009,2.85262 2.27561,10.50627 -4.46278,15.355z" fill="#f1f1f2" stroke="#000000" stroke-linecap="butt" stroke-linejoin="miter"/><path d="M429.64007,151.18056v0l-0.02134,-0.06165c-4.1494,-2.0379 -8.96534,-2.40495 -13.37283,-0.6949l-0.04082,0.04082c0.40987,-3.96336 2.1682,-7.68894 7.44274,-7.23234c5.22774,0.45262 6.36735,4.04494 5.99226,7.94806z" fill="#f1f1f2" stroke="#000000" stroke-linecap="butt" stroke-linejoin="miter"/><path d="M405.96096,143.91743v0l0.00746,0.01793c-3.37543,1.98165 -5.80429,5.06459 -7.09555,8.62754l-0.05323,-0.00399c-1.06099,-2.46814 -1.02319,-5.32976 2.14583,-7.97146c1.61209,-1.34351 3.35454,-1.35495 4.99549,-0.67002z" fill="#f1f1f2" stroke="#000000" stroke-linecap="butt" stroke-linejoin="miter"/><path d="M406.13452,170.48799c3.01532,-2.20002 7.73323,-8.41064 7.73323,-8.41064c0,0 0.12387,6.55088 9.07173,12.06564c8.94889,5.51824 13.62302,4.67562 14.13986,11.12454c0.38898,4.84474 -7.8904,11.40655 -18.54934,10.48936c-10.66048,-0.92021 -14.83173,-5.01837 -17.22679,-8.22564c-3.60923,-4.83883 -2.07518,-10.07506 -2.07518,-10.07506c1.03759,-3.61713 2.56862,-3.80863 6.90649,-6.9682v0z" fill="#e6e7e8" stroke="#000000" stroke-linecap="butt" stroke-linejoin="miter"/><path d="M411.87961,189.1866v0c-6.26533,-1.06697 -6.32955,-8.87625 -6.32955,-8.87625c0,0 1.20723,-1.13858 6.32955,-0.39045c5.1238,0.74909 7.90037,1.50268 7.90037,1.50268c0,0 -1.636,8.83343 -7.90037,7.76402z" fill="#ffffff" stroke="#231f20" stroke-linecap="round" stroke-linejoin="miter"/><path d="M406.45137,177.56014v0v0c-0.03728,0 -0.07508,-0.00444 -0.1134,-0.01241c-0.28799,-0.06364 -0.47151,-0.34816 -0.40884,-0.63769c0.03728,-0.17755 0.00598,-0.3596 -0.09205,-0.51233c-0.09996,-0.15222 -0.2527,-0.25867 -0.43127,-0.29744c-0.36654,-0.08106 -0.73064,0.15518 -0.81022,0.52326c-0.00598,0.03581 -0.01196,0.07463 -0.01395,0.1134c-0.00945,0.29596 -0.28156,0.53426 -0.55412,0.51433c-0.29596,-0.01093 -0.52628,-0.25964 -0.51433,-0.55508c0.00347,-0.099 0.01543,-0.19799 0.03581,-0.29744c0.10047,-0.45911 0.37111,-0.85111 0.76304,-1.10425c0.39348,-0.25372 0.863,-0.33974 1.3196,-0.24029c0.45866,0.09951 0.85059,0.37059 1.1038,0.76554c0.25263,0.39296 0.33871,0.86152 0.23823,1.32011c-0.05419,0.24871 -0.27507,0.42028 -0.5223,0.42028z" fill="#231f20" stroke="none" stroke-linecap="butt" stroke-linejoin="miter"/><path d="M421.71586,178.7684v0v0c-0.0378,0 -0.07611,-0.00354 -0.11487,-0.01196c-0.2885,-0.06319 -0.47254,-0.34822 -0.40987,-0.63672c0.03928,-0.17755 0.00598,-0.35863 -0.0925,-0.51131c-0.099,-0.1537 -0.25218,-0.25912 -0.43076,-0.29847c-0.17659,-0.03831 -0.35818,-0.00643 -0.50989,0.09154c-0.1537,0.09951 -0.26009,0.25321 -0.2984,0.43172c-0.00797,0.03632 -0.01292,0.07566 -0.01446,0.11295c-0.01041,0.29647 -0.25617,0.52776 -0.5556,0.51484c-0.29596,-0.01099 -0.52474,-0.25919 -0.51529,-0.55463c0.00495,-0.10047 0.01691,-0.19998 0.0378,-0.29892c0.10099,-0.45962 0.37207,-0.85207 0.76702,-1.10528c0.39245,-0.25315 0.85998,-0.34025 1.31664,-0.23778c0.45757,0.10002 0.85156,0.37162 1.10374,0.76503c0.2527,0.39296 0.33626,0.86152 0.23823,1.31863c-0.0547,0.25019 -0.27603,0.42035 -0.52178,0.42035z" fill="#231f20" stroke="none" stroke-linecap="butt" stroke-linejoin="miter"/></g></g></g></svg>